<svg width="24" height="25" viewBox="0 0 24 25" fill="none" xmlns="http://www.w3.org/2000/svg">
<path d="M3 9.78937C3 9.25893 3.21071 8.75023 3.58579 8.37515C3.96086 8.00008 4.46957 7.78937 5 7.78937H5.93C6.25918 7.78942 6.58329 7.70821 6.87357 7.55296C7.16384 7.3977 7.4113 7.1732 7.594 6.89937L8.406 5.67937C8.5887 5.40554 8.83616 5.18103 9.12643 5.02578C9.41671 4.87052 9.74082 4.78932 10.07 4.78937H13.93C14.2592 4.78932 14.5833 4.87052 14.8736 5.02578C15.1638 5.18103 15.4113 5.40554 15.594 5.67937L16.406 6.89937C16.5887 7.1732 16.8362 7.3977 17.1264 7.55296C17.4167 7.70821 17.7408 7.78942 18.07 7.78937H19C19.5304 7.78937 20.0391 8.00008 20.4142 8.37515C20.7893 8.75023 21 9.25893 21 9.78937V18.7894C21 19.3198 20.7893 19.8285 20.4142 20.2036C20.0391 20.5787 19.5304 20.7894 19 20.7894H5C4.46957 20.7894 3.96086 20.5787 3.58579 20.2036C3.21071 19.8285 3 19.3198 3 18.7894V9.78937Z" stroke="#2F4FCD" stroke-linecap="round" stroke-linejoin="round"/>
<path d="M15 13.7894C15 14.585 14.6839 15.3481 14.1213 15.9107C13.5587 16.4733 12.7956 16.7894 12 16.7894C11.2044 16.7894 10.4413 16.4733 9.87868 15.9107C9.31607 15.3481 9 14.585 9 13.7894C9 12.9937 9.31607 12.2307 9.87868 11.668C10.4413 11.1054 11.2044 10.7894 12 10.7894C12.7956 10.7894 13.5587 11.1054 14.1213 11.668C14.6839 12.2307 15 12.9937 15 13.7894V13.7894Z" stroke="#2F4FCD" stroke-linecap="round" stroke-linejoin="round"/>
</svg>
