<svg width="24" height="25" viewBox="0 0 24 25" fill="none" xmlns="http://www.w3.org/2000/svg">
<path d="M4 7.76001H20M19 7.76001L18.133 19.902C18.0971 20.4066 17.8713 20.8788 17.5011 21.2236C17.1309 21.5683 16.6439 21.76 16.138 21.76H7.862C7.35614 21.76 6.86907 21.5683 6.49889 21.2236C6.1287 20.8788 5.90292 20.4066 5.867 19.902L5 7.76001H19ZM10 11.76V17.76V11.76ZM14 11.76V17.76V11.76ZM15 7.76001V4.76001C15 4.49479 14.8946 4.24044 14.7071 4.0529C14.5196 3.86537 14.2652 3.76001 14 3.76001H10C9.73478 3.76001 9.48043 3.86537 9.29289 4.0529C9.10536 4.24044 9 4.49479 9 4.76001V7.76001H15Z" stroke="currentColor" stroke-linecap="round" stroke-linejoin="round"/>
</svg>
