<svg width="130" height="143" viewBox="0 0 130 143" fill="none" xmlns="http://www.w3.org/2000/svg">
<path opacity="0.15" d="M28.5775 138.5C28.5775 139.461 32.3967 140.383 39.1949 141.063C45.9931 141.743 55.2134 142.125 64.8275 142.125C74.4416 142.125 83.6619 141.743 90.4601 141.063C97.2583 140.383 101.077 139.461 101.077 138.5C101.077 137.539 97.2583 136.617 90.4601 135.937C83.6619 135.257 74.4416 134.875 64.8275 134.875C55.2134 134.875 45.9931 135.257 39.1949 135.937C32.3967 136.617 28.5775 137.539 28.5775 138.5Z" fill="#45413C"/>
<path d="M48.75 70.4167H81.25H48.75ZM65 54.1667V86.6667V54.1667ZM92.0833 113.75H37.9166C35.0435 113.75 32.288 112.609 30.2563 110.577C28.2247 108.545 27.0833 105.79 27.0833 102.917V27.0833C27.0833 24.2102 28.2247 21.4547 30.2563 19.423C32.288 17.3914 35.0435 16.25 37.9166 16.25H68.1742C69.6106 16.2503 70.9882 16.8212 72.0037 17.8371L101.33 47.1629C102.345 48.1785 102.916 49.556 102.917 50.9925V102.917C102.917 105.79 101.775 108.545 99.7436 110.577C97.712 112.609 94.9565 113.75 92.0833 113.75Z" stroke="#9A9A9A" stroke-width="2" stroke-linecap="round" stroke-linejoin="round"/>
</svg>
