<svg width="16" height="16" viewBox="0 0 16 16" fill="none" xmlns="http://www.w3.org/2000/svg">
<path fill-rule="evenodd" clip-rule="evenodd" d="M8 16C12.4183 16 16 12.4183 16 8C16 3.58172 12.4183 0 8 0C3.58172 0 0 3.58172 0 8C0 12.4183 3.58172 16 8 16ZM11.6843 5.42698C12.0314 5.77411 12.0314 6.33692 11.6843 6.68405L7.79537 10.5729C7.44824 10.9201 6.88542 10.9201 6.53829 10.5729L4.59385 8.6285C4.24671 8.28137 4.24671 7.71855 4.59385 7.37142C4.94098 7.02429 5.50379 7.02429 5.85092 7.37142L7.16683 8.68733L10.4272 5.42698C10.7743 5.07984 11.3371 5.07984 11.6843 5.42698Z" fill="currentColor"/>
</svg>
