<svg width="290" height="290" viewBox="0 0 290 290" fill="none" xmlns="http://www.w3.org/2000/svg">
<path d="M87.0001 57.9997C79.3088 57.9997 71.9326 61.0551 66.494 66.4936C61.0554 71.9322 58.0001 79.3085 58.0001 86.9997V108.75C58.0001 110.673 57.2363 112.517 55.8766 113.876C54.517 115.236 52.6729 116 50.7501 116C48.8273 116 46.9832 115.236 45.6236 113.876C44.2639 112.517 43.5001 110.673 43.5001 108.75V86.9997C43.5001 75.4628 48.0831 64.3984 56.2409 56.2406C64.3988 48.0827 75.4632 43.4997 87.0001 43.4997H108.75C110.673 43.4997 112.517 44.2636 113.877 45.6232C115.236 46.9828 116 48.8269 116 50.7497C116 52.6725 115.236 54.5166 113.877 55.8762C112.517 57.2359 110.673 57.9997 108.75 57.9997H87.0001ZM87.0001 94.2497C87.0001 92.3269 87.7639 90.4828 89.1236 89.1232C90.4832 87.7636 92.3273 86.9997 94.2501 86.9997H195.75C197.673 86.9997 199.517 87.7636 200.877 89.1232C202.236 90.4828 203 92.3269 203 94.2497C203 96.1725 202.236 98.0166 200.877 99.3763C199.517 100.736 197.673 101.5 195.75 101.5H94.2501C92.3273 101.5 90.4832 100.736 89.1236 99.3763C87.7639 98.0166 87.0001 96.1725 87.0001 94.2497ZM87.0001 137.75C87.0001 135.827 87.7639 133.983 89.1236 132.623C90.4832 131.264 92.3273 130.5 94.2501 130.5H195.75C197.673 130.5 199.517 131.264 200.877 132.623C202.236 133.983 203 135.827 203 137.75C203 139.673 202.236 141.517 200.877 142.876C199.517 144.236 197.673 145 195.75 145H94.2501C92.3273 145 90.4832 144.236 89.1236 142.876C87.7639 141.517 87.0001 139.673 87.0001 137.75ZM94.2501 174C92.3273 174 90.4832 174.764 89.1236 176.123C87.7639 177.483 87.0001 179.327 87.0001 181.25C87.0001 183.173 87.7639 185.017 89.1236 186.376C90.4832 187.736 92.3273 188.5 94.2501 188.5H152.25C154.173 188.5 156.017 187.736 157.377 186.376C158.736 185.017 159.5 183.173 159.5 181.25C159.5 179.327 158.736 177.483 157.377 176.123C156.017 174.764 154.173 174 152.25 174H94.2501ZM181.25 43.4997C179.327 43.4997 177.483 44.2636 176.124 45.6232C174.764 46.9828 174 48.8269 174 50.7497C174 52.6725 174.764 54.5166 176.124 55.8762C177.483 57.2359 179.327 57.9997 181.25 57.9997H203C210.691 57.9997 218.068 61.0551 223.506 66.4936C228.945 71.9322 232 79.3085 232 86.9997V108.75C232 110.673 232.764 112.517 234.124 113.876C235.483 115.236 237.327 116 239.25 116C241.173 116 243.017 115.236 244.377 113.876C245.736 112.517 246.5 110.673 246.5 108.75V86.9997C246.5 75.4628 241.917 64.3984 233.759 56.2406C225.601 48.0827 214.537 43.4997 203 43.4997H181.25ZM50.7501 174C52.6729 174 54.517 174.764 55.8766 176.123C57.2363 177.483 58.0001 179.327 58.0001 181.25V203C58.0001 210.691 61.0554 218.067 66.494 223.506C71.9326 228.944 79.3088 232 87.0001 232H108.75C110.673 232 112.517 232.764 113.877 234.123C115.236 235.483 116 237.327 116 239.25C116 241.173 115.236 243.017 113.877 244.376C112.517 245.736 110.673 246.5 108.75 246.5H87.0001C75.4632 246.5 64.3988 241.917 56.2409 233.759C48.0831 225.601 43.5001 214.537 43.5001 203V181.25C43.5001 179.327 44.2639 177.483 45.6236 176.123C46.9832 174.764 48.8273 174 50.7501 174ZM246.5 181.25C246.5 179.327 245.736 177.483 244.377 176.123C243.017 174.764 241.173 174 239.25 174C237.327 174 235.483 174.764 234.124 176.123C232.764 177.483 232 179.327 232 181.25V203C232 210.691 228.945 218.067 223.506 223.506C218.068 228.944 210.691 232 203 232H181.25C179.327 232 177.483 232.764 176.124 234.123C174.764 235.483 174 237.327 174 239.25C174 241.173 174.764 243.017 176.124 244.376C177.483 245.736 179.327 246.5 181.25 246.5H203C214.537 246.5 225.601 241.917 233.759 233.759C241.917 225.601 246.5 214.537 246.5 203V181.25Z" fill="#2F4FCD"/>
</svg>
